# xmcd CD database file
#
# Track frame offsets:
#	150
#	12199
#	22283
#	34956
#	47103
#	61335
#	73083
#	88839
#	104625
#	118430
#	128424
#	139989
#	150003
#	163009
#	175210
#	187270
#	202415
#	217158
#	230821
#	244182
#
# Disc length: 3434 seconds
#
# Revision: 1
# Processed by: cddbd v1.5.2PL0 Copyright (c) Steve Scherf et al.
# Submitted via: CDex 1.51
#
DISCID=3b0d6814
DTITLE=Vários - Modão de Viola - As 20 mais
DYEAR=2003
DGENRE=sertanejo
TTITLE0=Pedro Bento e Zé da Estrada - Dama de vermelho
TTITLE1=Dino Franco e Morai - Minhas penas
TTITLE2=Tião Carreiro e Pardinho - Tem gambá no galinheiro
TTITLE3=Zé Mulato e Cassiano - Fechado pra balanco
TTITLE4=Os dois mineiros - O viajante e a viuva
TTITLE5=Lemão do Rodeio - Gavião garanhao
TTITLE6=Banda Brasil Caboclo - Zé tira teima
TTITLE7=Pedrito e Paquera - Viola sertaneja
TTITLE8=Ed Marques e Alessandro - Festa cerveja e mulher
TTITLE9=Canário e Passarinho - Coitadinha da Regina
TTITLE10=Salim e Zé Vítor - Espora da paixão
TTITLE11=Taviano e Tavares - Mar de amor
TTITLE12=Canadá e Continente - Carga pesada
TTITLE13=Gino e Geno - Menina linda
TTITLE14=Nelson e Nilson - Ai meu bem
TTITLE15=Lorito e Loreto - Amor velho tem raiz
TTITLE16=Inaldo e Mariano - Calorenta
TTITLE17=Zé Garoto e Timboré - Ninho de saudade
TTITLE18=Paixão e Paxa - Tomando méh
TTITLE19=Divino e Paranaense - Selva de pedra
EXTD=YEAR: 2003
EXTT0=
EXTT1=
EXTT2=
EXTT3=
EXTT4=
EXTT5=
EXTT6=
EXTT7=
EXTT8=
EXTT9=
EXTT10=
EXTT11=
EXTT12=
EXTT13=
EXTT14=
EXTT15=
EXTT16=
EXTT17=
EXTT18=
EXTT19=
PLAYORDER=
